<svg width="14" height="14" viewBox="0 0 14 14" fill="none" xmlns="http://www.w3.org/2000/svg">
<path fill-rule="evenodd" clip-rule="evenodd" d="M6.99996 2.33332C4.42263 2.33332 2.33329 4.42266 2.33329 6.99999C2.33329 9.57732 4.42263 11.6667 6.99996 11.6667C9.57729 11.6667 11.6666 9.57732 11.6666 6.99999C11.6666 4.42266 9.57729 2.33332 6.99996 2.33332ZM1.16663 6.99999C1.16663 3.77833 3.7783 1.16666 6.99996 1.16666C10.2216 1.16666 12.8333 3.77833 12.8333 6.99999C12.8333 10.2217 10.2216 12.8333 6.99996 12.8333C3.7783 12.8333 1.16663 10.2217 1.16663 6.99999ZM7.58329 4.08334V5.25001H6.41663V4.08334H7.58329ZM6.41663 9.91667V5.83334H7.58329V9.91667H6.41663Z" fill="#4E5969"/>
</svg>
