<svg width="14" height="14" viewBox="0 0 14 14" fill="none" xmlns="http://www.w3.org/2000/svg">
<path fill-rule="evenodd" clip-rule="evenodd" d="M5.25004 4.375C5.25004 3.4085 6.03354 2.62499 7.00004 2.62499C7.96654 2.62499 8.75004 3.4085 8.75004 4.375C8.75004 5.34149 7.96654 6.125 7.00004 6.125C6.03354 6.125 5.25004 5.34149 5.25004 4.375ZM7.00004 1.45833C5.38921 1.45833 4.08337 2.76416 4.08337 4.375C4.08337 5.98583 5.38921 7.29166 7.00004 7.29166C8.61087 7.29166 9.91671 5.98583 9.91671 4.375C9.91671 2.76416 8.61087 1.45833 7.00004 1.45833ZM4.66671 7.875C3.82716 7.875 3.03057 8.13082 2.43366 8.63611C1.8275 9.14923 1.45837 9.89551 1.45837 10.7917V11.6667C1.45837 12.1499 1.85013 12.5417 2.33337 12.5417H11.6667C12.15 12.5417 12.5417 12.1499 12.5417 11.6667V10.7917C12.5417 9.89551 12.1726 9.14923 11.5664 8.63611C10.9695 8.13082 10.1729 7.875 9.33337 7.875H4.66671ZM2.62504 10.7917C2.62504 10.2381 2.84354 9.81768 3.18744 9.52657C3.54059 9.22763 4.0565 9.04166 4.66671 9.04166H9.33337C9.94358 9.04166 10.4595 9.22763 10.8126 9.52657C11.1565 9.81768 11.375 10.2381 11.375 10.7917V11.375H2.62504V10.7917Z" fill="#4E5969"/>
</svg>
