<svg width="12" height="12" viewBox="0 0 12 12" fill="none" xmlns="http://www.w3.org/2000/svg">
<path fill-rule="evenodd" clip-rule="evenodd" d="M2.64122 7.94454C2.25069 8.33506 2.25069 8.96822 2.64122 9.35875C3.03174 9.74927 3.66491 9.74927 4.05543 9.35875L6.17675 7.23743C6.56728 6.8469 6.56728 6.21374 6.17675 5.82322L6.88386 5.11611C7.66491 5.89716 7.66491 7.16349 6.88386 7.94454L4.76254 10.0659C3.98149 10.8469 2.71516 10.8469 1.93411 10.0659C1.15306 9.28481 1.15306 8.01848 1.93411 7.23743L3.17155 5.99999L3.87865 6.7071L2.64122 7.94454ZM5.11609 6.88387C4.33504 6.10283 4.33504 4.8365 5.11609 4.05545L7.23741 1.93413C8.01846 1.15308 9.28479 1.15308 10.0658 1.93413C10.8469 2.71518 10.8469 3.98151 10.0658 4.76255L8.8284 5.99999L8.12129 5.29289L9.35873 4.05545C9.74926 3.66492 9.74926 3.03176 9.35873 2.64123C8.96821 2.25071 8.33504 2.25071 7.94452 2.64123L5.8232 4.76255C5.43267 5.15308 5.43267 5.78624 5.8232 6.17677L5.11609 6.88387Z" fill="#00B42A"/>
</svg>
