<svg width="41" height="32" viewBox="0 0 41 32" fill="none" xmlns="http://www.w3.org/2000/svg">
<path d="M6 31C6 25.1141 6 20.353 6 16.5236M6 16.5236C6 9.82739 6 5.98004 6 3.94907C6 2.8445 6.89543 2.04711 8 2.04711H23.5125C24.0385 2.04711 24.5432 2.25426 24.9175 2.6237L27.405 5.07889C27.7857 5.45469 28 5.96735 28 6.50231V11.8966C28 12.5305 27.6995 13.1269 27.19 13.5041L23.6414 16.131C23.297 16.386 22.8798 16.5236 22.4514 16.5236H6Z" stroke="#1D2129" stroke-width="2"/>
<path d="M6 30C12.7467 15.2661 14.7048 8.85471 16.007 6.75679C16.3074 6.2729 16.9015 6.43417 17.1336 6.95428L27.0587 29.1998C27.2195 29.5603 27.5772 29.7924 27.9719 29.7924H29C29.5523 29.7924 30 29.3447 30 28.7924V22.4078V20.5616" stroke="#9FDB1D" stroke-width="2"/>
<path d="M30 17V19" stroke="#9FDB1D" stroke-width="2"/>
<path d="M6 31C6 23 6 17.5016 6 15M6 15C6 14 6 13.2151 6 13V15ZM16.5 16.5H14H11.5H6.5" stroke="#1D2129" stroke-width="2"/>
</svg>
