<svg width="16" height="16" viewBox="0 0 16 16" fill="none" xmlns="http://www.w3.org/2000/svg">
<path fill-rule="evenodd" clip-rule="evenodd" d="M7.5296 4.04255C7.26482 4.64754 7.13155 5.28291 7.04919 5.92464C7.00016 6.30674 6.97316 6.6422 6.9459 6.98088C6.92594 7.22891 6.90584 7.47867 6.87684 7.74974C6.8151 8.3269 6.7159 8.93499 6.45547 9.45669C6.32918 9.70968 6.10268 10.0152 5.70962 10.1047C5.31502 10.1945 4.99382 10.012 4.81013 9.86739C4.4521 9.58563 4.15077 9.0863 3.92869 8.66366C3.86864 8.5494 3.81037 8.43263 3.75439 8.3159C3.58675 9.18243 3.60811 10.2642 4.2758 11.3045C5.03357 12.4851 6.15157 13.0682 7.25474 13.2603C8.38406 13.4569 9.42507 13.2319 9.97242 12.8892C11.4216 11.982 12.5671 10.1129 11.6926 8.02211C11.5417 7.75302 11.4139 7.47295 11.3058 7.19712C11.2162 7.44029 11.1054 7.69099 10.9611 7.89331C10.8635 8.03017 10.7224 8.18589 10.5219 8.29053C10.3035 8.40453 10.0552 8.43604 9.80685 8.37385C8.99268 8.16998 8.48448 7.54336 8.17196 6.89077C7.85846 6.23613 7.69114 5.45719 7.59959 4.74456C7.56893 4.50596 7.54621 4.27002 7.5296 4.04255ZM12.0609 4.79007L12.061 4.79101L12.0622 4.80088C12.0633 4.81036 12.0653 4.82555 12.068 4.84596C12.0735 4.88682 12.0824 4.94847 12.0953 5.02715C12.1211 5.18481 12.1627 5.40909 12.2253 5.67021C12.3522 6.19998 12.5575 6.84771 12.8708 7.39679L12.8896 7.42987L12.9046 7.46489C14.1486 10.3722 12.4871 12.8881 10.6799 14.0194C9.79775 14.5716 8.40771 14.8144 7.02603 14.5739C5.6182 14.3287 4.14524 13.5695 3.1537 12.0247C2.2268 10.5805 2.23516 9.09003 2.45849 7.99644C2.5702 7.44943 2.73724 6.99115 2.8766 6.66857C2.94652 6.5067 3.01018 6.37738 3.05767 6.28632C3.08144 6.24075 3.10122 6.20462 3.11581 6.17865C3.1231 6.16566 3.1291 6.1552 3.13366 6.14736L3.13939 6.13756L3.14141 6.13415L3.1422 6.13282L3.14254 6.13225C3.1427 6.13199 3.14284 6.13174 3.71475 6.47433L3.14284 6.13174L3.8763 4.90735L4.34447 6.2555L4.3451 6.2573L4.34771 6.26472L4.35879 6.29596C4.36873 6.32378 4.38366 6.36514 4.40305 6.41771C4.44186 6.52296 4.49837 6.67255 4.5684 6.8479C4.70962 7.20153 4.90091 7.64746 5.10899 8.04345C5.21153 8.23858 5.30686 8.39908 5.39076 8.52423C5.46239 8.27697 5.51175 7.97551 5.55107 7.60792C5.57158 7.4162 5.59048 7.188 5.61074 6.94333C5.64233 6.56192 5.67723 6.1405 5.72671 5.75492C5.90193 4.38945 6.31351 2.8273 7.72789 1.51184L8.97275 0.354042L8.84677 2.0491L8.84664 2.05093L8.84604 2.05975C8.84548 2.06801 8.84463 2.08098 8.84359 2.09837C8.8415 2.13314 8.83861 2.18552 8.83563 2.25313C8.82967 2.38844 8.82337 2.58414 8.82233 2.82132C8.82023 3.29791 8.83942 3.93148 8.92205 4.57467C9.00571 5.22583 9.14934 5.84469 9.37451 6.31488C9.54752 6.67615 9.73928 6.89287 9.94157 7.00525C9.99186 6.90424 10.0506 6.75717 10.118 6.55465C10.1773 6.37628 10.2307 6.19688 10.2882 6.00358C10.3268 5.8738 10.3672 5.73776 10.4126 5.59155C10.5176 5.25338 10.6422 4.88546 10.8018 4.56581L11.8116 2.54298L12.0608 4.7894L12.0609 4.79007ZM5.23839 8.90295C5.23836 8.90282 5.23951 8.90108 5.24193 8.89812C5.23964 8.9016 5.23842 8.90308 5.23839 8.90295ZM5.64449 8.82695C5.64718 8.82852 5.64856 8.82949 5.64858 8.82959C5.6486 8.82968 5.64726 8.8289 5.64449 8.82695Z" fill="#4E5969"/>
</svg>
