<svg width="16" height="16" viewBox="0 0 16 16" fill="none" xmlns="http://www.w3.org/2000/svg">
<path fill-rule="evenodd" clip-rule="evenodd" d="M1.94827 1.7891C2.1249 1.66414 2.35118 1.63266 2.5552 1.70467L7.99999 3.62636L13.4448 1.70467C13.6488 1.63266 13.8751 1.66414 14.0517 1.7891C14.2283 1.91406 14.3333 2.11697 14.3333 2.33333V11.6667C14.3333 11.9493 14.1551 12.2012 13.8885 12.2953L8.22187 14.2953C8.07829 14.346 7.92169 14.346 7.77811 14.2953L2.11144 12.2953C1.8449 12.2012 1.66666 11.9493 1.66666 11.6667V2.33333C1.66666 2.11697 1.77165 1.91406 1.94827 1.7891ZM7.33332 4.805L2.99999 3.27559V11.195L7.33332 12.7244V4.805ZM8.66666 12.7244L13 11.195V3.27559L8.66666 4.805V12.7244ZM4.22421 4.53883L6.55755 5.37217L6.1091 6.62782L3.77577 5.79449L4.22421 4.53883ZM12.2242 5.79449L9.89088 6.62782L9.44243 5.37217L11.7758 4.53883L12.2242 5.79449ZM4.22421 6.87217L6.55755 7.7055L6.1091 8.96116L3.77577 8.12782L4.22421 6.87217ZM12.2242 8.12782L9.89088 8.96116L9.44243 7.7055L11.7758 6.87217L12.2242 8.12782ZM4.22421 9.2055L6.55755 10.0388L6.1091 11.2945L3.77577 10.4612L4.22421 9.2055ZM12.2242 10.4612L9.89088 11.2945L9.44243 10.0388L11.7758 9.2055L12.2242 10.4612Z" fill="#4E5969"/>
</svg>
