<svg width="16" height="16" viewBox="0 0 16 16" fill="none" xmlns="http://www.w3.org/2000/svg">
<path fill-rule="evenodd" clip-rule="evenodd" d="M3.66683 6.8018C3.66683 4.31706 5.62358 2.33333 8.00016 2.33333C10.3767 2.33333 12.3335 4.31706 12.3335 6.8018C12.3335 7.33823 12.0884 8.04179 11.6369 8.84991C11.1946 9.64168 10.5961 10.4608 9.98411 11.209C9.37418 11.9548 8.76245 12.6162 8.30228 13.0918C8.19194 13.2059 8.09052 13.309 8.00016 13.3999C7.90981 13.309 7.80839 13.2059 7.69805 13.0918C7.23788 12.6162 6.62614 11.9548 6.01622 11.209C5.40426 10.4608 4.80576 9.64168 4.36341 8.84991C3.91192 8.04179 3.66683 7.33823 3.66683 6.8018ZM7.54359 14.8191C7.5437 14.8192 7.54379 14.8193 8.00016 14.3333C8.45654 14.8193 8.45663 14.8192 8.45674 14.8191L8.00016 15.2479L7.54359 14.8191ZM7.54359 14.8191L8.00016 14.3333L8.45674 14.8191L8.45802 14.8179L8.46132 14.8148L8.47323 14.8035C8.48349 14.7938 8.49835 14.7797 8.5175 14.7613C8.55581 14.7246 8.6113 14.6711 8.68153 14.6023C8.82195 14.4647 9.02152 14.266 9.26055 14.0189C9.73788 13.5255 10.3761 12.8358 11.0162 12.0531C11.6543 11.273 12.3058 10.3865 12.8009 9.50022C13.2869 8.6303 13.6668 7.6834 13.6668 6.8018C13.6668 3.61443 11.1464 1 8.00016 1C4.8539 1 2.3335 3.61443 2.3335 6.8018C2.3335 7.6834 2.71341 8.6303 3.19942 9.50022C3.69456 10.3865 4.34607 11.273 4.98411 12.0531C5.62418 12.8358 6.26245 13.5255 6.73978 14.0189C6.97881 14.266 7.17837 14.4647 7.31879 14.6023C7.38903 14.6711 7.44452 14.7246 7.48282 14.7613L7.50258 14.7802L7.5271 14.8035L7.53901 14.8148L7.5423 14.8179L7.54359 14.8191ZM7.00016 6.33333C7.00016 5.78105 7.44788 5.33333 8.00016 5.33333C8.55245 5.33333 9.00016 5.78105 9.00016 6.33333C9.00016 6.88562 8.55245 7.33333 8.00016 7.33333C7.44788 7.33333 7.00016 6.88562 7.00016 6.33333ZM8.00016 4C6.7115 4 5.66683 5.04467 5.66683 6.33333C5.66683 7.622 6.7115 8.66667 8.00016 8.66667C9.28883 8.66667 10.3335 7.622 10.3335 6.33333C10.3335 5.04467 9.28883 4 8.00016 4Z" fill="#4E5969"/>
</svg>
