<svg width="14" height="14" viewBox="0 0 14 14" fill="none" xmlns="http://www.w3.org/2000/svg">
<path fill-rule="evenodd" clip-rule="evenodd" d="M2.33317 7C2.33317 4.42267 4.42251 2.33333 6.99984 2.33333C9.57717 2.33333 11.6665 4.42267 11.6665 7C11.6665 9.57733 9.57717 11.6667 6.99984 11.6667C4.42251 11.6667 2.33317 9.57733 2.33317 7ZM6.99984 1.16667C3.77818 1.16667 1.1665 3.77834 1.1665 7C1.1665 10.2217 3.77818 12.8333 6.99984 12.8333C10.2215 12.8333 12.8332 10.2217 12.8332 7C12.8332 3.77834 10.2215 1.16667 6.99984 1.16667ZM6.00818 5.82709V5.69258C6.00888 5.53254 6.06611 5.35501 6.19382 5.22154C6.31176 5.09827 6.54165 4.95833 6.99649 4.95833C7.42361 4.95833 7.72063 5.16226 7.8721 5.39378C8.03385 5.64102 8.00198 5.84847 7.92521 5.95212C7.82946 6.08138 7.71058 6.20077 7.56691 6.33011C7.5232 6.36945 7.46933 6.41634 7.41156 6.4666L7.41155 6.46662C7.30825 6.5565 7.19251 6.65722 7.10022 6.74503C6.77254 7.05683 6.41661 7.49199 6.41661 8.16667L6.41851 8.46208L7.58515 8.45459L7.58329 8.16507C7.58372 7.96555 7.66551 7.81757 7.90444 7.59022C7.98476 7.5138 8.05695 7.45134 8.13956 7.37987L8.13959 7.37984C8.20069 7.32698 8.26748 7.2692 8.34747 7.19719C8.51383 7.04743 8.69895 6.86761 8.8627 6.64654C9.30493 6.04952 9.20151 5.2948 8.84838 4.75505C8.48497 4.19957 7.82375 3.79167 6.99649 3.79167C6.2806 3.79167 5.72558 4.02334 5.35085 4.41499C4.98608 4.79623 4.84284 5.27658 4.84151 5.68963V5.82709H6.00818ZM6.4185 9.04167V10.2106H7.58516V9.04167H6.4185Z" fill="#C9CDD4"/>
</svg>
