<svg width="16" height="16" viewBox="0 0 16 16" fill="none" xmlns="http://www.w3.org/2000/svg">
<path fill-rule="evenodd" clip-rule="evenodd" d="M7.5296 4.04257C7.26482 4.64757 7.13155 5.28293 7.0492 5.92466C7.00016 6.30676 6.97316 6.64222 6.9459 6.9809C6.92594 7.22894 6.90584 7.47869 6.87684 7.74976C6.8151 8.32692 6.7159 8.93501 6.45547 9.45672C6.32918 9.7097 6.10268 10.0152 5.70962 10.1047C5.31502 10.1945 4.99382 10.012 4.81013 9.86742C4.4521 9.58566 4.15077 9.08632 3.92869 8.66368C3.86865 8.54942 3.81037 8.43265 3.75439 8.31592C3.58675 9.18245 3.60811 10.2642 4.2758 11.3045C5.03357 12.4851 6.15157 13.0682 7.25474 13.2603C8.38406 13.4569 9.42508 13.2319 9.97242 12.8892C11.4216 11.982 12.5671 10.1129 11.6926 8.02214C11.5417 7.75305 11.4139 7.47297 11.3058 7.19714C11.2162 7.44032 11.1054 7.69102 10.9611 7.89333C10.8635 8.0302 10.7224 8.18591 10.5219 8.29056C10.3035 8.40456 10.0552 8.43606 9.80685 8.37387C8.99268 8.17 8.48448 7.54338 8.17196 6.89079C7.85846 6.23616 7.69114 5.45722 7.59959 4.74459C7.56893 4.50598 7.54621 4.27004 7.5296 4.04257ZM12.0609 4.79009L12.061 4.79103L12.0622 4.8009C12.0633 4.81038 12.0653 4.82557 12.068 4.84599C12.0735 4.88684 12.0824 4.9485 12.0953 5.02717C12.1211 5.18483 12.1627 5.40912 12.2253 5.67023C12.3522 6.20001 12.5575 6.84774 12.8708 7.39681L12.8896 7.42989L12.9046 7.46491C14.1486 10.3722 12.4871 12.8881 10.6799 14.0194C9.79775 14.5716 8.40771 14.8145 7.02603 14.5739C5.6182 14.3288 4.14524 13.5695 3.1537 12.0247C2.2268 10.5805 2.23516 9.09005 2.45849 7.99647C2.5702 7.44946 2.73724 6.99117 2.8766 6.66859C2.94652 6.50673 3.01018 6.37741 3.05767 6.28634C3.08144 6.24077 3.10122 6.20464 3.11581 6.17867C3.1231 6.16569 3.1291 6.15523 3.13366 6.14738L3.13939 6.13758L3.14141 6.13417L3.1422 6.13284L3.14254 6.13227C3.1427 6.13201 3.14284 6.13176 3.71475 6.47436L3.14284 6.13176L3.8763 4.90737L4.34447 6.25552L4.3451 6.25732L4.34771 6.26474L4.35879 6.29598C4.36873 6.3238 4.38366 6.36517 4.40305 6.41774C4.44186 6.52298 4.49837 6.67257 4.5684 6.84792C4.70962 7.20155 4.90091 7.64748 5.10899 8.04347C5.21153 8.2386 5.30686 8.39911 5.39076 8.52425C5.46239 8.27699 5.51175 7.97554 5.55108 7.60794C5.57158 7.41622 5.59048 7.18802 5.61074 6.94336C5.64233 6.56194 5.67723 6.14052 5.72671 5.75495C5.90193 4.38947 6.31351 2.82732 7.7279 1.51186L8.97275 0.354065L8.84678 2.04912L8.84664 2.05096L8.84604 2.05977C8.84548 2.06804 8.84463 2.08101 8.84359 2.09839C8.8415 2.13317 8.83861 2.18554 8.83563 2.25315C8.82967 2.38846 8.82337 2.58416 8.82233 2.82134C8.82023 3.29794 8.83942 3.9315 8.92205 4.57469C9.00571 5.22586 9.14934 5.84471 9.37451 6.3149C9.54752 6.67618 9.73928 6.89289 9.94157 7.00528C9.99186 6.90426 10.0506 6.7572 10.118 6.55467C10.1773 6.37631 10.2307 6.19691 10.2882 6.0036C10.3268 5.87382 10.3672 5.73778 10.4126 5.59158C10.5176 5.2534 10.6422 4.88548 10.8018 4.56584L11.8116 2.543L12.0608 4.78942L12.0609 4.79009ZM5.23839 8.90297C5.23836 8.90284 5.23951 8.9011 5.24193 8.89814C5.23964 8.90163 5.23842 8.90311 5.23839 8.90297ZM5.64449 8.82698C5.64718 8.82854 5.64856 8.82951 5.64858 8.82961C5.6486 8.8297 5.64726 8.82892 5.64449 8.82698Z" fill="#F7BA1E"/>
<path d="M3.74341 8.47008C3.74341 8.80006 3.86232 9.02828 3.98507 9.30959C4.04118 9.43817 4.13486 9.52526 4.17897 9.67841C4.2374 9.88131 4.36874 10.0615 4.44593 10.2545C4.49226 10.3703 4.61275 10.5188 4.62999 10.6374C4.64853 10.7648 4.72755 10.8868 4.75644 11.0132C4.77108 11.0772 4.82518 11.1375 4.84496 11.2046C4.90424 11.4058 4.73857 11.0403 4.71569 10.9991C4.63102 10.8467 4.53067 10.7187 4.42626 10.5882C4.35759 10.5023 4.29158 10.4848 4.22393 10.4143C4.08417 10.2687 4.13947 10.432 4.22393 10.5355C4.65405 11.0626 5.22717 11.3347 5.7498 11.6806C5.82412 11.7298 6.02289 11.8118 6.06453 11.9159C6.11826 12.0503 6.17356 12.1977 6.22751 12.3374C6.26023 12.4222 6.27797 12.5754 6.3357 12.6395C6.33819 12.6423 6.39042 12.7006 6.35678 12.6852C6.25009 12.6363 6.15663 12.542 6.04907 12.4902C5.95361 12.4443 5.85306 12.4201 5.75542 12.3831C5.51602 12.2923 5.16026 12.1632 4.9686 11.9475C4.96154 11.9396 4.85681 11.7988 4.88711 11.8035C5.01451 11.8234 5.1785 11.9461 5.29738 12.0002C5.56887 12.1239 5.83936 12.2697 6.12073 12.355C6.32817 12.4179 6.54349 12.4531 6.7544 12.5025C7.02747 12.5665 7.2913 12.6947 7.56792 12.7379C7.91257 12.7917 8.20264 12.9918 8.52896 13.1102C8.80926 13.2119 9.10704 13.0315 9.38323 13.0224C9.49389 13.0188 9.63004 12.9704 9.74011 12.9451C9.95897 12.8949 10.2097 12.8162 10.4047 12.6747C10.6279 12.5127 10.807 12.1676 10.9555 11.9124C11.1261 11.6191 11.3516 11.3658 11.5076 11.0624C11.5849 10.9122 11.7024 10.7422 11.7339 10.5653C11.7618 10.4079 11.8364 10.2753 11.8364 10.114C11.8364 9.84942 11.9089 9.62585 11.9432 9.37282C11.9735 9.14883 12.1954 8.91292 12.1343 8.66679C12.059 8.36373 11.9086 8.06119 11.7971 7.77459C11.7249 7.58903 11.701 7.44632 11.5442 7.332C11.4304 7.24904 11.4062 7.13566 11.4767 7.33903C11.5286 7.4887 11.5329 7.63109 11.5329 7.7904C11.5329 8.17358 11.4293 8.53861 11.4079 8.92672C11.392 9.21528 11.3092 9.46444 11.1508 9.67666C10.8647 10.0598 10.5951 10.3549 10.1953 10.5548C9.9107 10.6971 9.53914 10.6936 9.23429 10.7287C9.00957 10.7546 8.7825 10.749 8.55706 10.7462C8.34277 10.7436 8.23017 10.7683 8.14398 10.5179C8.04666 10.2353 8.03051 9.87769 8.01191 9.57304C7.99463 9.29006 7.98626 9.00688 7.99224 8.72299C7.99692 8.50074 8.05453 8.30522 8.04001 8.07843C8.02029 7.77026 7.92665 7.42081 7.8405 7.13003C7.79776 6.98578 7.8152 6.82208 7.8152 6.66988C7.8152 6.32073 7.78697 5.98697 7.76462 5.64245C7.75021 5.42018 7.63126 5.23927 7.59321 5.03477C7.57514 4.93767 7.53701 4.83208 7.53701 4.73269C7.53701 4.57183 7.53848 4.53689 7.53701 4.74674C7.53356 5.23767 7.41955 5.70347 7.41055 6.1869C7.40809 6.31941 7.14902 7.57161 7.08037 7.52871C7.03782 7.50211 7.03912 7.2022 7.03681 7.15637C7.02503 6.92236 7.03119 6.68643 7.03119 6.4521C7.03119 6.06359 7.01649 5.69195 7.10566 5.31578C7.15627 5.10228 7.1823 4.85976 7.25881 4.65892C7.29019 4.57654 7.2603 4.46316 7.32063 4.42006C7.35377 4.39639 7.39309 4.30147 7.44849 4.33225C7.54252 4.38449 7.53325 4.75282 7.5356 4.84684C7.5512 5.47072 7.50637 6.11915 7.41196 6.73135C7.37199 6.99052 7.29943 7.23716 7.25881 7.49358C7.17491 8.02323 7.05319 8.53295 6.98061 9.06722C6.95896 9.22664 6.90588 9.37238 6.88226 9.52737C6.87244 9.59184 6.88528 9.65654 6.86821 9.72057C6.83535 9.84378 6.74489 9.99292 6.68837 10.0999C6.60487 10.258 6.53324 10.248 6.38488 10.265C6.00498 10.3087 5.62569 10.2088 5.2468 10.2088C5.11674 10.2088 4.97699 10.1909 4.84777 10.2088C4.70042 10.2293 5.14206 10.265 5.28333 10.3212C5.5411 10.4237 5.76425 10.6309 5.99428 10.806C6.32569 11.0581 6.77022 11.1277 7.13236 11.2907C7.27158 11.3533 7.42487 11.4264 7.54544 11.5366C7.60124 11.5876 7.59214 11.6162 7.68313 11.6384C8.04344 11.7266 8.42151 11.74 8.78749 11.7895C9.16512 11.8405 9.54305 11.8527 9.92276 11.8527C10.1579 11.8527 10.4653 11.5196 10.6112 11.3153C10.7236 11.158 10.8361 11.0621 10.9147 10.8657C11.0014 10.6488 11.0811 10.4053 11.1002 10.1614C11.1411 9.63696 11.0766 9.10432 11.1227 8.57897C11.1358 8.4294 11.106 8.26473 11.148 8.12234C11.1676 8.05565 10.9302 8.11139 10.9063 8.11531C10.4825 8.18479 9.97055 8.1523 9.55464 8.05911C9.11745 7.96115 8.68936 7.78266 8.25077 7.70434C8.11003 7.67921 7.72565 7.50041 8.06811 7.73946C8.33935 7.9288 8.63601 8.04028 8.93221 8.15044C9.10399 8.21432 9.29235 8.31549 9.47174 8.34187C9.63694 8.36617 9.79191 8.49501 9.95508 8.54912C10.1069 8.59948 10.2561 8.67846 10.4075 8.72299C10.4761 8.74317 10.9409 8.9 10.7602 9.0883C10.6221 9.23215 10.3914 9.22542 10.2234 9.2288C10.0312 9.23268 9.83728 9.23574 9.64737 9.19368C9.15571 9.08476 8.65528 9.02313 8.15803 8.96185C8.08459 8.95279 7.95082 8.91354 7.87703 8.94428C7.81192 8.97141 8.00474 9.00751 8.06671 9.04439C8.3626 9.22052 8.69757 9.26003 8.98982 9.43253C9.26582 9.59545 9.5309 9.66543 9.83284 9.74164C9.85257 9.74662 10.2402 9.84023 10.1616 9.89444C9.9849 10.0163 9.7185 9.98583 9.52654 9.98752C9.11256 9.99118 8.69848 9.98752 8.28449 9.98752C7.95758 9.98752 7.63068 9.98752 7.30377 9.98752C7.26695 9.98752 7.11441 9.9574 7.0874 9.99455C7.06847 10.0206 7.22296 10.1515 7.23352 10.1614C7.36549 10.2851 7.51357 10.3516 7.65082 10.46C7.72352 10.5174 7.7591 10.5264 7.78991 10.4301" stroke="#F7BA1E" stroke-linecap="round"/>
<path d="M8.85223 12.327C8.83893 12.4848 8.77756 12.6847 8.6499 12.7379" stroke="#F7BA1E" stroke-linecap="round"/>
</svg>
