<svg width="14" height="14" viewBox="0 0 14 14" fill="none" xmlns="http://www.w3.org/2000/svg">
<path fill-rule="evenodd" clip-rule="evenodd" d="M9.23318 3.45856C7.63854 1.86392 5.05311 1.86392 3.45847 3.45856C1.86383 5.0532 1.86383 7.63863 3.45847 9.23327C5.05311 10.8279 7.63854 10.8279 9.23318 9.23327C10.8278 7.63863 10.8278 5.0532 9.23318 3.45856ZM2.63351 2.63361C4.68377 0.583354 8.00788 0.583354 10.0581 2.63361C11.969 4.54444 12.0989 7.56177 10.448 9.62309L12.533 11.7081L11.7081 12.5331L9.623 10.448C7.56168 12.099 4.54435 11.9691 2.63351 10.0582C0.583262 8.00797 0.583262 4.68386 2.63351 2.63361Z" fill="#1D2129"/>
</svg>
